<svg xmlns="http://www.w3.org/2000/svg" width="1024" height="1024" viewBox="0 0 1024 1024" role="img">
<title>Component_SkinDetail_Freckles_Dense</title>
<desc>Dope-i-Mine 3D-style SVG avatar component based on the attached curly-haired reference avatar.</desc>
<defs>
<filter id="softShadow" x="-40%" y="-40%" width="180%" height="180%"><feDropShadow dx="0" dy="12" stdDeviation="14" flood-color="#000" flood-opacity=".24"/></filter>
<linearGradient id="skin3d" x1="0" y1="0" x2="1" y2="1"><stop offset="0%" stop-color="#F3B17A"/><stop offset="50%" stop-color="#B87346"/><stop offset="100%" stop-color="#8C4B27"/></linearGradient>
<linearGradient id="hair3d" x1="0" y1="0" x2="1" y2="1"><stop offset="0%" stop-color="#FF9B3D"/><stop offset="45%" stop-color="#8A330B"/><stop offset="100%" stop-color="#461405"/></linearGradient>
<radialGradient id="iris3d" cx="35%" cy="30%" r="70%"><stop offset="0%" stop-color="#AE7440"/><stop offset="55%" stop-color="#6B3E1D"/><stop offset="100%" stop-color="#241209"/></radialGradient>
<linearGradient id="denim3d" x1="0" y1="0" x2="1" y2="1"><stop offset="0%" stop-color="#C5DCEA"/><stop offset="48%" stop-color="#79A9C9"/><stop offset="100%" stop-color="#3B6E91"/></linearGradient>
<linearGradient id="blackCloth3d" x1="0" y1="0" x2="1" y2="1"><stop offset="0%" stop-color="#424242"/><stop offset="45%" stop-color="#111111"/><stop offset="100%" stop-color="#050505"/></linearGradient>
</defs>
<g id="Component_SkinDetail_Freckles_Dense">
<circle cx="413.9" cy="490.4" r="2.9" fill="#873A17" opacity="0.65" id="freckle_0"/>
<circle cx="454.3" cy="483.9" r="3.9" fill="#873A17" opacity="0.4" id="freckle_1"/>
<circle cx="640.6" cy="490.3" r="3.3" fill="#873A17" opacity="0.58" id="freckle_2"/>
<circle cx="574.1" cy="477.5" r="4.4" fill="#873A17" opacity="0.75" id="freckle_3"/>
<circle cx="633.2" cy="411.9" r="2.3" fill="#873A17" opacity="0.49" id="freckle_4"/>
<circle cx="431.6" cy="479.7" r="4.2" fill="#873A17" opacity="0.75" id="freckle_5"/>
<circle cx="612.0" cy="481.6" r="4.8" fill="#873A17" opacity="0.66" id="freckle_6"/>
<circle cx="479.0" cy="484.1" r="4.3" fill="#873A17" opacity="0.5" id="freckle_7"/>
<circle cx="441.1" cy="403.4" r="2.4" fill="#873A17" opacity="0.66" id="freckle_8"/>
<circle cx="651.2" cy="485.2" r="3.7" fill="#873A17" opacity="0.73" id="freckle_9"/>
<circle cx="484.7" cy="428.2" r="2.2" fill="#873A17" opacity="0.44" id="freckle_10"/>
<circle cx="561.7" cy="434.3" r="4.7" fill="#873A17" opacity="0.38" id="freckle_11"/>
<circle cx="615.5" cy="486.3" r="3.8" fill="#873A17" opacity="0.62" id="freckle_12"/>
<circle cx="551.1" cy="388.1" r="3.2" fill="#873A17" opacity="0.75" id="freckle_13"/>
<circle cx="513.6" cy="393.8" r="3.4" fill="#873A17" opacity="0.41" id="freckle_14"/>
<circle cx="561.4" cy="423.8" r="4.7" fill="#873A17" opacity="0.73" id="freckle_15"/>
<circle cx="527.4" cy="397.5" r="3.5" fill="#873A17" opacity="0.68" id="freckle_16"/>
<circle cx="405.3" cy="413.5" r="3.2" fill="#873A17" opacity="0.69" id="freckle_17"/>
<circle cx="422.6" cy="416.0" r="4.4" fill="#873A17" opacity="0.49" id="freckle_18"/>
<circle cx="574.5" cy="388.4" r="3.5" fill="#873A17" opacity="0.43" id="freckle_19"/>
<circle cx="524.8" cy="402.0" r="2.5" fill="#873A17" opacity="0.73" id="freckle_20"/>
<circle cx="574.6" cy="447.3" r="2.3" fill="#873A17" opacity="0.56" id="freckle_21"/>
<circle cx="372.1" cy="487.2" r="3.5" fill="#873A17" opacity="0.43" id="freckle_22"/>
<circle cx="496.0" cy="490.4" r="4.6" fill="#873A17" opacity="0.57" id="freckle_23"/>
<circle cx="551.5" cy="428.6" r="4.1" fill="#873A17" opacity="0.55" id="freckle_24"/>
<circle cx="624.9" cy="461.9" r="2.5" fill="#873A17" opacity="0.53" id="freckle_25"/>
<circle cx="613.8" cy="398.4" r="3.7" fill="#873A17" opacity="0.63" id="freckle_26"/>
<circle cx="422.5" cy="431.5" r="2.7" fill="#873A17" opacity="0.4" id="freckle_27"/>
<circle cx="501.9" cy="380.4" r="2.6" fill="#873A17" opacity="0.58" id="freckle_28"/>
<circle cx="518.7" cy="420.1" r="2.9" fill="#873A17" opacity="0.53" id="freckle_29"/>
<circle cx="631.1" cy="509.2" r="2.5" fill="#873A17" opacity="0.65" id="freckle_30"/>
<circle cx="629.8" cy="491.8" r="4.1" fill="#873A17" opacity="0.67" id="freckle_31"/>
<circle cx="464.7" cy="419.1" r="2.5" fill="#873A17" opacity="0.53" id="freckle_32"/>
<circle cx="649.0" cy="495.3" r="2.3" fill="#873A17" opacity="0.47" id="freckle_33"/>
<circle cx="397.3" cy="450.1" r="2.7" fill="#873A17" opacity="0.47" id="freckle_34"/>
<circle cx="647.4" cy="411.4" r="3.0" fill="#873A17" opacity="0.72" id="freckle_35"/>
<circle cx="567.5" cy="393.8" r="3.7" fill="#873A17" opacity="0.73" id="freckle_36"/>
<circle cx="515.7" cy="412.8" r="3.8" fill="#873A17" opacity="0.71" id="freckle_37"/>
<circle cx="391.4" cy="380.5" r="4.2" fill="#873A17" opacity="0.59" id="freckle_38"/>
<circle cx="509.1" cy="398.1" r="4.3" fill="#873A17" opacity="0.57" id="freckle_39"/>
<circle cx="573.3" cy="421.4" r="2.9" fill="#873A17" opacity="0.64" id="freckle_40"/>
<circle cx="389.3" cy="491.3" r="2.9" fill="#873A17" opacity="0.5" id="freckle_41"/>
<circle cx="648.0" cy="486.7" r="4.4" fill="#873A17" opacity="0.57" id="freckle_42"/>
<circle cx="493.9" cy="478.7" r="2.9" fill="#873A17" opacity="0.5" id="freckle_43"/>
<circle cx="648.8" cy="505.5" r="4.6" fill="#873A17" opacity="0.64" id="freckle_44"/>
<circle cx="603.1" cy="489.4" r="3.2" fill="#873A17" opacity="0.65" id="freckle_45"/>
<circle cx="437.2" cy="460.2" r="3.5" fill="#873A17" opacity="0.44" id="freckle_46"/>
<circle cx="574.0" cy="486.1" r="2.6" fill="#873A17" opacity="0.49" id="freckle_47"/>
<circle cx="550.1" cy="410.1" r="4.5" fill="#873A17" opacity="0.56" id="freckle_48"/>
<circle cx="582.7" cy="462.3" r="3.4" fill="#873A17" opacity="0.5" id="freckle_49"/>
<circle cx="474.8" cy="498.2" r="4.2" fill="#873A17" opacity="0.42" id="freckle_50"/>
<circle cx="544.8" cy="390.5" r="3.4" fill="#873A17" opacity="0.61" id="freckle_51"/>
<circle cx="522.7" cy="405.6" r="3.2" fill="#873A17" opacity="0.53" id="freckle_52"/>
<circle cx="449.6" cy="493.8" r="4.2" fill="#873A17" opacity="0.59" id="freckle_53"/>
<circle cx="373.0" cy="510.5" r="2.6" fill="#873A17" opacity="0.52" id="freckle_54"/>
<circle cx="557.8" cy="468.4" r="2.7" fill="#873A17" opacity="0.43" id="freckle_55"/>
<circle cx="475.9" cy="505.4" r="2.4" fill="#873A17" opacity="0.56" id="freckle_56"/>
<circle cx="575.1" cy="440.6" r="3.0" fill="#873A17" opacity="0.62" id="freckle_57"/>
<circle cx="527.3" cy="478.3" r="3.9" fill="#873A17" opacity="0.63" id="freckle_58"/>
<circle cx="580.4" cy="489.5" r="2.9" fill="#873A17" opacity="0.51" id="freckle_59"/>
<circle cx="501.0" cy="438.8" r="3.9" fill="#873A17" opacity="0.43" id="freckle_60"/>
<circle cx="598.8" cy="507.7" r="2.4" fill="#873A17" opacity="0.55" id="freckle_61"/>
<circle cx="546.5" cy="442.3" r="4.4" fill="#873A17" opacity="0.42" id="freckle_62"/>
<circle cx="552.6" cy="422.8" r="3.3" fill="#873A17" opacity="0.61" id="freckle_63"/>
<circle cx="575.7" cy="468.0" r="3.1" fill="#873A17" opacity="0.5" id="freckle_64"/>
<circle cx="381.1" cy="452.8" r="2.8" fill="#873A17" opacity="0.57" id="freckle_65"/>
<circle cx="635.6" cy="424.4" r="2.3" fill="#873A17" opacity="0.64" id="freckle_66"/>
<circle cx="575.2" cy="485.1" r="4.7" fill="#873A17" opacity="0.71" id="freckle_67"/>
<circle cx="412.9" cy="388.7" r="2.9" fill="#873A17" opacity="0.49" id="freckle_68"/>
<circle cx="602.0" cy="460.1" r="4.5" fill="#873A17" opacity="0.71" id="freckle_69"/>
<circle cx="639.2" cy="465.9" r="3.5" fill="#873A17" opacity="0.45" id="freckle_70"/>
<circle cx="537.7" cy="464.4" r="3.9" fill="#873A17" opacity="0.65" id="freckle_71"/>

</g>
</svg>