<svg xmlns="http://www.w3.org/2000/svg" width="1024" height="1024" viewBox="0 0 1024 1024" role="img">
<title>Component_Hair_Afro_Rounded</title>
<desc>Dope-i-Mine 3D-style SVG avatar component based on the attached curly-haired reference avatar.</desc>
<defs>
<filter id="softShadow" x="-40%" y="-40%" width="180%" height="180%"><feDropShadow dx="0" dy="12" stdDeviation="14" flood-color="#000" flood-opacity=".24"/></filter>
<linearGradient id="skin3d" x1="0" y1="0" x2="1" y2="1"><stop offset="0%" stop-color="#F3B17A"/><stop offset="50%" stop-color="#B87346"/><stop offset="100%" stop-color="#8C4B27"/></linearGradient>
<linearGradient id="hair3d" x1="0" y1="0" x2="1" y2="1"><stop offset="0%" stop-color="#FF9B3D"/><stop offset="45%" stop-color="#8A330B"/><stop offset="100%" stop-color="#461405"/></linearGradient>
<radialGradient id="iris3d" cx="35%" cy="30%" r="70%"><stop offset="0%" stop-color="#AE7440"/><stop offset="55%" stop-color="#6B3E1D"/><stop offset="100%" stop-color="#241209"/></radialGradient>
<linearGradient id="denim3d" x1="0" y1="0" x2="1" y2="1"><stop offset="0%" stop-color="#C5DCEA"/><stop offset="48%" stop-color="#79A9C9"/><stop offset="100%" stop-color="#3B6E91"/></linearGradient>
<linearGradient id="blackCloth3d" x1="0" y1="0" x2="1" y2="1"><stop offset="0%" stop-color="#424242"/><stop offset="45%" stop-color="#111111"/><stop offset="100%" stop-color="#050505"/></linearGradient>
</defs>
<g id="Component_Hair_Afro_Rounded">
<circle cx="675" cy="366" r="50" fill="url(#hair3d)" stroke="#461405" stroke-width="5"/>
<circle cx="671" cy="381" r="47" fill="url(#hair3d)" stroke="#461405" stroke-width="5"/>
<circle cx="658" cy="428" r="46" fill="url(#hair3d)" stroke="#461405" stroke-width="5"/>
<circle cx="614" cy="437" r="54" fill="url(#hair3d)" stroke="#461405" stroke-width="5"/>
<circle cx="585" cy="453" r="53" fill="url(#hair3d)" stroke="#461405" stroke-width="5"/>
<circle cx="564" cy="463" r="42" fill="url(#hair3d)" stroke="#461405" stroke-width="5"/>
<circle cx="543" cy="474" r="44" fill="url(#hair3d)" stroke="#461405" stroke-width="5"/>
<circle cx="498" cy="489" r="45" fill="url(#hair3d)" stroke="#461405" stroke-width="5"/>
<circle cx="445" cy="475" r="37" fill="url(#hair3d)" stroke="#461405" stroke-width="5"/>
<circle cx="414" cy="449" r="48" fill="url(#hair3d)" stroke="#461405" stroke-width="5"/>
<circle cx="393" cy="446" r="39" fill="url(#hair3d)" stroke="#461405" stroke-width="5"/>
<circle cx="367" cy="401" r="49" fill="url(#hair3d)" stroke="#461405" stroke-width="5"/>
<circle cx="378" cy="380" r="40" fill="url(#hair3d)" stroke="#461405" stroke-width="5"/>
<circle cx="346" cy="365" r="41" fill="url(#hair3d)" stroke="#461405" stroke-width="5"/>
<circle cx="355" cy="336" r="47" fill="url(#hair3d)" stroke="#461405" stroke-width="5"/>
<circle cx="377" cy="293" r="47" fill="url(#hair3d)" stroke="#461405" stroke-width="5"/>
<circle cx="402" cy="278" r="39" fill="url(#hair3d)" stroke="#461405" stroke-width="5"/>
<circle cx="441" cy="273" r="48" fill="url(#hair3d)" stroke="#461405" stroke-width="5"/>
<circle cx="475" cy="250" r="42" fill="url(#hair3d)" stroke="#461405" stroke-width="5"/>
<circle cx="482" cy="244" r="45" fill="url(#hair3d)" stroke="#461405" stroke-width="5"/>
<circle cx="528" cy="257" r="51" fill="url(#hair3d)" stroke="#461405" stroke-width="5"/>
<circle cx="553" cy="260" r="36" fill="url(#hair3d)" stroke="#461405" stroke-width="5"/>
<circle cx="602" cy="255" r="49" fill="url(#hair3d)" stroke="#461405" stroke-width="5"/>
<circle cx="639" cy="281" r="50" fill="url(#hair3d)" stroke="#461405" stroke-width="5"/>
<circle cx="631" cy="310" r="38" fill="url(#hair3d)" stroke="#461405" stroke-width="5"/>
<circle cx="656" cy="326" r="37" fill="url(#hair3d)" stroke="#461405" stroke-width="5"/>
<ellipse cx="512" cy="390" rx="150" ry="120" fill="url(#hair3d)" stroke="#461405" stroke-width="5"/>

</g>
</svg>